<svg width="873" height="841" viewBox="0 0 873 841" fill="none" xmlns="http://www.w3.org/2000/svg">
<g id="outer_space">
<mask id="mask0_1_65" style="mask-type:alpha" maskUnits="userSpaceOnUse" x="45" y="88" width="757" height="702">
<path id="background" d="M303.71 768.517C254.324 752.626 209.333 728.055 171.62 696.377C139.636 669.502 141.318 628.039 141.318 628.039L140.978 627.799C126.731 617.716 116.263 604.247 110.887 589.082C105.511 573.917 105.467 557.731 110.76 542.555C112.114 538.61 112.725 535.573 112.148 534.122C101.621 507.673 77.3578 508.74 58.0079 485.848C24.1275 445.766 64.4103 313.899 127.516 295.712C178.662 280.972 203.95 213.734 243.186 188.825C249.321 184.93 255.526 181.11 261.801 177.365C264.717 175.608 267.654 173.872 270.613 172.156C300.845 154.526 332.482 138.741 365.293 124.919C386.73 115.855 408.834 108.001 431.464 101.409C521.073 75.7777 587.6 85.2322 570.546 157.539C568.522 166.098 566.705 174.453 565.096 182.603C562.753 194.405 560.813 205.798 559.277 216.781C557.194 231.571 555.793 245.646 555.074 259.006C554.827 263.499 554.649 267.909 554.541 272.237C552.978 336.234 566.608 383.809 588.078 420.131C591.709 426.288 595.555 432.126 599.617 437.644C605.786 446.073 612.624 454.127 620.08 461.75C630.459 472.3 641.902 482.041 654.276 490.861L654.956 491.346C714.847 534.076 781.421 548.472 792.919 577.981C842.08 704.128 659.433 782.393 481.341 789.289C472.367 789.637 463.42 789.801 454.5 789.781C450.513 789.778 446.536 789.733 442.571 789.646C432.226 789.443 421.95 788.979 411.801 788.251C407.92 787.978 404.06 787.666 400.222 787.316C396.082 786.93 391.967 786.513 387.879 786.036C357.909 782.623 329.417 776.823 303.71 768.517Z" fill="#00428D"/>
</mask>
<g mask="url(#mask0_1_65)">
<rect id="Rectangle 1" x="49" y="85" width="756" height="707" fill="#00428D"/>
<path id="circle" d="M291.466 464.471C288.529 468.043 283.264 463.107 286.3 459.627C289.238 456.055 294.502 460.991 291.466 464.471Z" fill="#E6E6E6"/>
<path id="circle_2" d="M529.844 533.946C526.907 537.518 521.642 532.582 524.678 529.101C527.616 525.529 532.88 530.466 529.844 533.946Z" fill="#E6E6E6"/>
<path id="circle_3" d="M659.844 600.946C656.907 604.518 651.642 599.582 654.678 596.101C657.616 592.529 662.88 597.466 659.844 600.946Z" fill="#E6E6E6"/>
<path id="circle_4" d="M543.844 663.946C540.907 667.518 535.642 662.582 538.678 659.101C541.616 655.529 546.88 660.466 543.844 663.946Z" fill="#E6E6E6"/>
<path id="circle_5" d="M348.703 682.273C345.765 685.845 340.5 680.909 343.537 677.428C346.474 673.856 351.739 678.793 348.703 682.273Z" fill="#E6E6E6"/>
<path id="circle_6" d="M256.484 304.616C253.546 308.189 248.281 303.252 251.318 299.772C254.255 296.2 259.52 301.136 256.484 304.616Z" fill="#E6E6E6"/>
<path id="star" d="M502.569 197.293L500.14 197.43L500.007 194.873L498.388 194.965L498.519 197.523L496.089 197.661L496.177 199.366L498.607 199.228L498.738 201.785L500.358 201.692L500.227 199.135L502.657 198.997L502.569 197.293Z" fill="#E6E6E6"/>
<path id="star_2" d="M105.31 362.293L102.88 362.43L102.748 359.873L101.128 359.965L101.259 362.523L98.8298 362.661L98.9173 364.366L101.347 364.228L101.479 366.785L103.099 366.692L102.968 364.135L105.398 363.997L105.31 362.293Z" fill="#E6E6E6"/>
<path id="star_3" d="M619.31 719.293L616.88 719.43L616.748 716.873L615.128 716.965L615.259 719.523L612.83 719.661L612.917 721.366L615.347 721.228L615.479 723.785L617.099 723.692L616.968 721.135L619.398 720.997L619.31 719.293Z" fill="#E6E6E6"/>
<path id="star_4" d="M210.31 270.293L207.88 270.43L207.748 267.873L206.128 267.965L206.259 270.523L203.83 270.661L203.917 272.366L206.347 272.228L206.479 274.785L208.099 274.692L207.968 272.135L210.398 271.997L210.31 270.293Z" fill="#E6E6E6"/>
<path id="star_5" d="M182.311 506.737L179.881 506.875L179.749 504.318L178.129 504.411L178.26 506.967L175.83 507.106L175.917 508.811L178.348 508.673L178.48 511.23L180.1 511.137L179.969 508.58L182.398 508.442L182.311 506.737Z" fill="#E6E6E6"/>
<path id="star_6" d="M381.311 174.292L378.881 174.429L378.749 171.873L377.129 171.965L377.26 174.522L374.83 174.661L374.917 176.365L377.348 176.227L377.48 178.785L379.1 178.691L378.969 176.135L381.398 175.996L381.311 174.292Z" fill="#E6E6E6"/>
<path id="star_7" d="M317.311 217.292L314.881 217.429L314.749 214.873L313.129 214.965L313.26 217.522L310.83 217.661L310.917 219.365L313.348 219.227L313.48 221.785L315.1 221.691L314.969 219.135L317.398 218.996L317.311 217.292Z" fill="#E6E6E6"/>
<path id="sun" d="M528.498 399.903C534.009 398.3 537.241 392.299 535.717 386.5C534.193 380.701 528.49 377.3 522.979 378.903C517.468 380.507 514.235 386.508 515.759 392.307C517.283 398.106 522.986 401.507 528.498 399.903Z" fill="#FAA80A"/>
<path id="circle_7" d="M472.844 127.946C469.907 131.518 464.642 126.582 467.678 123.101C470.616 119.529 475.88 124.466 472.844 127.946Z" fill="#E6E6E6"/>
<g id="moon">
<path id="Vector" d="M238.215 593.604C248.96 590.477 255.263 578.778 252.291 567.472C249.32 556.165 238.201 549.534 227.456 552.661C216.711 555.787 210.409 567.487 213.38 578.793C216.351 590.099 227.47 596.73 238.215 593.604Z" fill="#A9A7A7"/>
<path id="Vector_2" d="M244.804 585.174C239.973 590.737 231.574 583.284 236.562 577.86C241.393 572.296 249.792 579.749 244.804 585.174Z" fill="#5F5F5F"/>
<path id="Vector_3" d="M231.72 579.247C229.573 581.719 225.84 578.407 228.057 575.996C230.204 573.524 233.937 576.836 231.72 579.247Z" fill="#5F5F5F"/>
<path id="Vector_4" d="M221.746 564.117C220.029 566.095 217.042 563.445 218.816 561.516C220.533 559.538 223.52 562.188 221.746 564.117Z" fill="#5F5F5F"/>
<path id="Vector_5" d="M217.746 572.298C216.029 574.276 213.042 571.627 214.816 569.698C216.533 567.72 219.52 570.37 217.746 572.298Z" fill="#5F5F5F"/>
<path id="Vector_6" d="M244.746 563.298C243.029 565.276 240.042 562.627 241.816 560.698C243.533 558.72 246.52 561.37 244.746 563.298Z" fill="#5F5F5F"/>
</g>
</g>
</g>
</svg>
