<svg width="138" height="408" viewBox="0 0 138 408" fill="none" xmlns="http://www.w3.org/2000/svg">
<g id="rocket">
<path id="Vector" d="M68.2537 2.32607C63.3557 2.37226 59.4493 12.0712 59.4722 15.8921L59.5164 22.8096L77.2517 22.6585L77.2075 15.741C77.1816 11.9201 73.1519 2.28879 68.2537 2.32607Z" fill="#3F3D56"/>
<path id="Vector_2" d="M86.4489 65.6688L50.9751 65.971C50.4326 61.6403 51.585 41.5176 54.8556 37.0889L55.8245 31.7338L80.3183 31.5251L81.5073 36.7941C84.9622 40.3318 86.4211 60.5701 86.4489 65.6688Z" fill="#E6E6E6"/>
<path id="Vector_3" d="M81.081 32.1775L55.8047 32.3928C54.8718 32.4007 54.1118 31.8173 54.1072 31.0895C54.1067 30.9846 54.1218 30.8805 54.1518 30.7816L58.3203 16.9091C58.4988 16.3151 59.1754 15.8916 59.9565 15.8849L76.719 15.7421C77.5001 15.7355 78.182 16.1474 78.3681 16.7383L82.7133 30.5383C82.9356 31.2441 82.3812 31.9602 81.4751 32.1378C81.3449 32.1631 81.2131 32.1764 81.081 32.1775V32.1775Z" fill="#E6E6E6"/>
<path id="Vector_4" d="M72.8289 29.5123L65.1513 29.5778C63.6698 29.5904 62.4515 27.6286 62.4361 25.2053C62.4206 22.7819 63.6136 20.7996 65.0952 20.787L72.7728 20.7215C74.2544 20.7089 75.4726 22.6707 75.4881 25.094C75.5035 27.5174 74.3105 29.4997 72.8289 29.5123Z" fill="#3F3D56"/>
<path id="Vector_5" d="M36.5236 289.367L36.454 299.354C34.0382 297.504 30.6023 298.798 29.2461 302.07C27.8899 305.341 28.8588 309.997 31.2787 311.838C29.7702 314.138 27.1763 314.136 24.903 314.19C22.6298 314.244 19.9424 314.904 19.0043 317.707C18.251 319.958 19.0567 322.719 20.4162 324.374C21.7757 326.029 23.5713 326.83 25.3105 327.588C21.534 329.332 18.9934 335.01 19.5955 340.359C20.1976 345.709 23.8738 350.121 27.865 350.285C24.1469 352.446 22.1991 358.962 23.756 364.031C25.3255 369.142 29.4926 371.75 33.4014 373.356C43.3491 377.462 54.1243 378.088 64.3784 375.156C68.2951 374.03 72.2056 372.339 75.4431 369.154C78.6807 365.968 81.1863 361.096 81.4761 355.684C79.6112 361.673 82.8142 368.865 87.2129 371.488C91.6116 374.112 96.6946 373.252 101.35 371.671C107.54 369.568 114.106 365.509 116.525 357.51C117.723 353.55 117.728 349.137 117.715 344.854L117.69 336.551C117.68 333.199 117.664 329.787 116.92 326.587C116.177 323.387 114.583 320.373 112.269 319.176C113.895 316.671 115.563 314.063 116.288 310.873C117.012 307.683 116.528 303.731 114.499 301.827C111.918 299.403 108.204 301.219 105.374 299.374C102.652 297.599 101.605 293.08 99.3665 290.329C98.4565 289.166 97.2728 288.335 95.9602 287.938C94.6477 287.541 93.2633 287.594 91.9767 288.092C89.4556 289.141 87.4168 292.083 86.8021 295.558C86.2636 298.602 86.7647 301.801 86.6023 304.925C86.44 308.049 85.2296 311.538 82.9554 312.094C80.2112 312.765 78.026 308.736 77.5592 305.009C77.0923 301.281 77.5484 297.305 76.4763 293.812C75.211 289.69 71.7278 287.047 68.4768 287.742C65.2258 288.436 62.5231 292.401 62.2699 296.848C62.0628 300.484 63.1531 304.846 61.1939 307.341C59.1233 309.978 55.5439 307.622 54.1522 304.256C52.7606 300.889 52.5612 296.817 51.2162 293.416C49.8503 289.962 47.2914 287.417 44.4514 286.687C42.9987 286.347 41.4953 286.436 40.08 286.945C38.6648 287.454 37.3833 288.366 36.3537 289.598" fill="#E6E6E6"/>
<path id="Vector_6" d="M69.7367 320.013C74.7072 320.013 78.7367 306.805 78.7367 290.513C78.7367 274.22 74.7072 261.013 69.7367 261.013C64.7661 261.013 60.7367 274.22 60.7367 290.513C60.7367 306.805 64.7661 320.013 69.7367 320.013Z" fill="#FFB23E"/>
<path id="Vector_7" d="M95.2367 320.013C100.483 320.013 104.737 306.805 104.737 290.513C104.737 274.22 100.483 261.013 95.2367 261.013C89.99 261.013 85.7367 274.22 85.7367 290.513C85.7367 306.805 89.99 320.013 95.2367 320.013Z" fill="#FFB23E"/>
<path id="Vector_8" d="M44.7367 320.013C49.7072 320.013 53.7367 306.805 53.7367 290.513C53.7367 274.22 49.7072 261.013 44.7367 261.013C39.7661 261.013 35.7367 274.22 35.7367 290.513C35.7367 306.805 39.7661 320.013 44.7367 320.013Z" fill="#FFB23E"/>
<path id="Vector_9" d="M98.1564 265.269L90.1001 265.338C88.8758 265.382 87.6726 264.962 86.6744 264.142C85.8132 263.37 85.4299 262.345 85.6236 261.329L87.3692 252.168C87.6982 250.44 89.5619 249.171 91.8004 249.152L96.2495 249.114C98.488 249.095 100.368 250.332 100.719 252.054L102.581 261.185C102.788 262.197 102.418 263.229 101.566 264.015C100.579 264.852 99.3811 265.293 98.1564 265.269V265.269Z" fill="#3F3D56"/>
<path id="Vector_10" d="M49.1599 265.325L41.1036 265.394C39.8793 265.438 38.6761 265.018 37.678 264.198C36.8168 263.426 36.4334 262.401 36.6272 261.385L38.3727 252.224C38.7017 250.496 40.5655 249.227 42.8039 249.208L47.2531 249.17C49.4915 249.151 51.3713 250.388 51.7223 252.11L53.5847 261.241C53.7914 262.253 53.4212 263.285 52.5699 264.071C51.5823 264.908 50.3847 265.349 49.1599 265.325V265.325Z" fill="#3F3D56"/>
<path id="Vector_11" d="M74.2228 264.37L66.1665 264.439C64.9422 264.483 63.739 264.063 62.7409 263.243C61.8797 262.471 61.4963 261.446 61.6901 260.43L63.4356 251.269C63.7646 249.54 65.6284 248.272 67.8668 248.253L72.316 248.215C74.5544 248.196 76.4342 249.432 76.7853 251.155L78.6476 260.285C78.8543 261.298 78.4841 262.329 77.6328 263.116C76.6452 263.953 75.4476 264.393 74.2228 264.37V264.37Z" fill="#3F3D56"/>
<path id="Vector_12" d="M94.2542 124.123C89.3561 124.17 85.4497 133.868 85.4726 137.689L85.5168 144.607L103.252 144.456L103.208 137.538C103.182 133.717 99.1523 124.086 94.2542 124.123Z" fill="#3F3D56"/>
<path id="Vector_13" d="M22.5896 185.383C22.3321 185.247 22.1067 185.042 21.9325 184.784C21.7583 184.527 21.6405 184.224 21.589 183.903C21.5376 183.581 21.5541 183.25 21.637 182.938C21.72 182.625 21.867 182.34 22.0656 182.107C22.2273 181.917 22.4202 181.765 22.633 181.661C22.8458 181.557 23.0744 181.503 23.3054 181.502L114.896 180.721C115.126 180.719 115.355 180.77 115.569 180.87C115.783 180.97 115.978 181.118 116.143 181.306C116.307 181.493 116.438 181.716 116.528 181.961C116.618 182.207 116.665 182.471 116.667 182.737C116.67 183.276 116.488 183.794 116.161 184.177C115.833 184.561 115.388 184.779 114.922 184.784L114.922 184.784L23.3314 185.564C23.0757 185.567 22.8225 185.505 22.5896 185.383V185.383Z" fill="#3F3D56"/>
<path id="Vector_14" d="M107.517 151.098L81.3367 151.321L81.9887 253.428L108.169 253.205L107.517 151.098Z" fill="#E6E6E6"/>
<path id="Vector_15" d="M81.628 46.6691L55.4472 46.8922L56.7652 253.29L82.9459 253.067L81.628 46.6691Z" fill="#E6E6E6"/>
<path id="Vector_16" d="M69.4089 146.278L69.4154 138.839L71.1044 138.83L71.0983 146.245L70.7363 254.31L69.047 254.325" fill="#3F3D56"/>
<path id="Vector_17" d="M98.7741 155.549L98.7807 148.11L100.47 148.101L100.464 155.516L100.102 263.581L98.4122 263.596" fill="#3F3D56"/>
<path id="Vector_18" d="M56.325 145.023C56.0989 144.905 55.8859 144.756 55.6906 144.579C55.4105 144.342 55.181 144.034 55.0197 143.679C54.8585 143.324 54.7697 142.931 54.7602 142.53L54.5149 104.109C54.505 102.518 55.8757 101.212 57.5706 101.198L80.1985 101.005C81.8937 100.99 83.2805 102.273 83.2909 103.863L83.5362 142.285C83.5319 142.686 83.4481 143.08 83.2914 143.438C83.1347 143.796 82.9092 144.108 82.6321 144.349C82.018 144.904 81.2597 145.202 80.4803 145.195L57.8528 145.388C57.3266 145.396 56.8053 145.271 56.325 145.023Z" fill="#3F3D56"/>
<path id="Vector_19" d="M56.9854 151.167L30.8047 151.39L31.4567 253.497L57.6375 253.274L56.9854 151.167Z" fill="#E6E6E6"/>
<path id="Vector_20" d="M44.2331 124.188C39.335 124.234 35.4287 133.933 35.4516 137.754L35.4957 144.672L53.2311 144.521L53.1869 137.603C53.161 133.782 49.1312 124.151 44.2331 124.188Z" fill="#3F3D56"/>
<path id="Vector_21" d="M107.433 192.966C106.517 192.973 105.637 192.56 104.986 191.818C104.334 191.076 103.963 190.066 103.955 189.009L103.884 177.751C103.878 176.694 104.236 175.678 104.878 174.926C105.52 174.174 106.395 173.747 107.31 173.739C108.224 173.732 109.104 174.144 109.756 174.885C110.408 175.626 110.779 176.636 110.787 177.692L110.859 188.95C110.864 190.007 110.507 191.023 109.865 191.776C109.222 192.529 108.348 192.957 107.433 192.966V192.966Z" fill="#3F3D56"/>
<path id="Vector_22" d="M30.4039 193.659C29.4888 193.666 28.6088 193.253 27.957 192.511C27.3052 191.769 26.9347 190.759 26.9269 189.702L26.855 178.444C26.8494 177.387 27.2071 176.372 27.8495 175.619C28.4919 174.867 29.3665 174.44 30.2812 174.433C31.1958 174.425 32.0758 174.837 32.7277 175.578C33.3797 176.319 33.7503 177.329 33.7582 178.385L33.8301 189.643C33.8357 190.7 33.4782 191.717 32.8359 192.47C32.1936 193.223 31.319 193.65 30.4039 193.659Z" fill="#3F3D56"/>
<path id="Vector_23" d="M109.683 169.637L79.323 169.896C78.8586 166.189 79.8449 148.967 82.6441 145.177L85.0975 140.58L103.403 139.976L105.454 144.925C110.844 145.559 112.436 162.543 109.683 169.637Z" fill="#E6E6E6"/>
<path id="Vector_24" d="M98.4186 162.582L90.741 162.647C89.2594 162.66 88.0372 160.063 88.0167 156.859C87.9963 153.655 89.1852 151.037 90.6668 151.024L98.3444 150.959C99.826 150.946 101.048 153.543 101.069 156.747C101.089 159.952 99.9002 162.569 98.4186 162.582Z" fill="#3F3D56"/>
<path id="Vector_25" d="M37.7799 151.795L37.7864 144.356L39.4754 144.347L39.4693 151.762L39.1073 259.827L37.4179 259.842" fill="#3F3D56"/>
<path id="Vector_26" d="M59.6624 169.702L29.3019 169.961C26.4752 165.81 26.5166 148.411 32.6231 145.242L35.0765 140.645L53.3817 140.041L55.4331 144.99C58.39 148.017 59.6386 165.338 59.6624 169.702Z" fill="#E6E6E6"/>
<path id="Vector_27" d="M48.3877 161.093L40.71 161.158C39.2285 161.171 38.0084 158.923 37.9907 156.147C37.973 153.371 39.1642 151.102 40.6457 151.089L48.3234 151.024C49.8049 151.011 51.025 153.26 51.0427 156.036C51.0604 158.811 49.8692 161.08 48.3877 161.093Z" fill="#3F3D56"/>
<path id="Vector_28" d="M107.863 205.22L122.913 219.304L124.012 248.558L106.003 240.046L107.863 205.22Z" fill="#E6E6E6"/>
<path id="Vector_29" d="M81.9822 150.258L87.0916 166.055L87.4446 238.18L81.3244 240.251L81.9822 150.258Z" fill="#CCCCCC"/>
<path id="Vector_30" d="M57.6815 149.349L52.374 165.059L51.1156 237.17L57.2091 239.344L57.6815 149.349Z" fill="#CCCCCC"/>
<path id="Vector_31" d="M32.6493 210.925L16.6061 223.462L13.3333 252.498L31.9095 245.807L32.6493 210.925Z" fill="#E6E6E6"/>
<path id="Vector_32" d="M51.1739 196.087C48.2363 199.659 42.9718 194.723 46.008 191.243C48.9454 187.671 54.2099 192.607 51.1739 196.087Z" fill="#E6E6E6"/>
</g>
</svg>
